<svg width="44" height="50" fill="none" xmlns="http://www.w3.org/2000/svg"><path d="M22 14.583v14.584m0 0 5.5-6.25m-5.5 6.25-5.5-6.25" stroke="#fff" stroke-width="4" stroke-linecap="round" stroke-linejoin="round"/><path d="M29.333 35.417H14.667" stroke="#fff" stroke-width="4" stroke-linecap="round"/><path d="M3.667 25c0-9.82 0-14.731 2.685-17.782C9.036 4.167 13.358 4.167 22 4.167s12.964 0 15.648 3.05C40.333 10.27 40.333 15.18 40.333 25c0 9.82 0 14.731-2.685 17.782-2.684 3.051-7.006 3.051-15.648 3.051s-12.964 0-15.648-3.05C3.667 39.73 3.667 34.82 3.667 25Z" stroke="#fff" stroke-width="4"/></svg>