<svg width="44" height="50" fill="none" xmlns="http://www.w3.org/2000/svg"><path d="M25.667 8.333c0 2.301-1.642 4.167-3.667 4.167s-3.667-1.866-3.667-4.167c0-2.3 1.642-4.166 3.667-4.166s3.667 1.865 3.667 4.166Z" stroke="#fff" stroke-width="4"/><path d="m22 31.25 1.194-.776c-.245-.486-.7-.787-1.194-.787-.493 0-.95.3-1.194.787L22 31.25Zm-11.347-7.166 3.988 1.511.87-2.965-3.988-1.51-.87 2.964Zm4.595 2.972-2.286 6.753 2.566 1.122 2.286-6.753-2.566-1.122Zm17.23-5.936-3.989 1.51.87 2.965 3.988-1.51-.87-2.965Zm-6.292 7.057 2.286 6.754 2.566-1.122-2.285-6.753-2.567 1.121Zm-5.881 9.593 2.889-5.745-2.388-1.55-2.889 5.744 2.388 1.55Zm10.842-22.846-3.479.847.576 3.056 3.48-.847-.577-3.056Zm-14.815.847-3.48-.847-.575 3.056 3.478.847.577-3.056Zm4.474 16.254 2.89 5.745 2.387-1.55-2.89-5.746-2.387 1.55Zm6.862-16.254-.376.091.557 3.06.395-.095-.576-3.056Zm-11.913 3.056.396.095.557-3.06-.376-.09-.577 3.055Zm11.537-2.965c-3.491.82-7.093.82-10.584 0l-.557 3.06c3.859.907 7.84.907 11.698 0l-.557-3.06ZM16.766 40.104c1.463 0 2.813-.891 3.539-2.334l-2.388-1.55c-.236.469-.675.759-1.151.759v3.125Zm11.706-5.173c.334.987-.307 2.048-1.238 2.048v3.125c2.86 0 4.831-3.261 3.804-6.295l-2.566 1.122Zm.017-12.3c-.406.154-.84.306-1.191.553l1.445 2.66c-.017.01-.003-.003.103-.049.111-.048.262-.105.513-.2l-.87-2.965Zm.264 4.425c-.096-.281-.152-.45-.19-.578-.037-.122-.037-.142-.034-.12l-2.725.422c.056.466.228.943.382 1.397l2.567-1.121Zm-1.455-3.872c-1.08.758-1.665 2.168-1.494 3.596l2.725-.423a.548.548 0 0 1 .213-.514l-1.444-2.659Zm6.16-3.61c0 .701-.395 1.324-.98 1.546l.87 2.964c1.708-.647 2.86-2.464 2.86-4.51h-2.75ZM12.962 33.808c-1.027 3.034.944 6.295 3.804 6.295v-3.125c-.93 0-1.572-1.061-1.238-2.048l-2.566-1.122Zm1.679-8.214c.251.095.402.152.513.2.106.046.12.06.104.048l1.444-2.659c-.352-.247-.785-.4-1.192-.554l-.87 2.965Zm3.173 2.582c.154-.454.326-.931.382-1.397l-2.725-.423c.002-.021.003 0-.033.121-.039.128-.095.297-.19.578l2.566 1.121Zm-2.556-2.334c.154.108.238.31.213.514l2.725.423c.171-1.428-.414-2.838-1.494-3.596l-1.444 2.66Zm-7.466-6.27c0 2.047 1.152 3.864 2.86 4.511l.87-2.964c-.585-.222-.98-.845-.98-1.547h-2.75Zm2.75 0c0-1.037.842-1.81 1.735-1.593l.576-3.056c-2.605-.634-5.061 1.622-5.061 4.65h2.75ZM23.695 37.77c.726 1.443 2.076 2.334 3.539 2.334v-3.125c-.476 0-.915-.29-1.151-.76l-2.388 1.55Zm12.513-18.197c0-3.027-2.456-5.283-5.06-4.649l.576 3.056c.892-.218 1.734.556 1.734 1.593h2.75Z" fill="#fff"/><path d="M35.665 30.208c2.903 1.659 4.668 3.85 4.668 6.25 0 5.178-8.208 9.375-18.333 9.375-10.125 0-18.333-4.197-18.333-9.375 0-2.4 1.765-4.591 4.668-6.25" stroke="#fff" stroke-width="4" stroke-linecap="round"/></svg>