<svg width="50" height="50" viewBox="0 0 50 50" fill="none" xmlns="http://www.w3.org/2000/svg">
<path d="M25 14.5833V29.1667M25 29.1667L31.25 22.9167M25 29.1667L18.75 22.9167" stroke="white" stroke-width="4" stroke-linecap="round" stroke-linejoin="round"/>
<path d="M33.3334 35.4167H25H16.6667" stroke="white" stroke-width="4" stroke-linecap="round"/>
<path d="M4.16669 25C4.16669 15.1791 4.16669 10.2686 7.21767 7.21767C10.2686 4.16669 15.1791 4.16669 25 4.16669C34.8209 4.16669 39.7315 4.16669 42.7823 7.21767C45.8334 10.2686 45.8334 15.1791 45.8334 25C45.8334 34.8209 45.8334 39.7315 42.7823 42.7823C39.7315 45.8334 34.8209 45.8334 25 45.8334C15.1791 45.8334 10.2686 45.8334 7.21767 42.7823C4.16669 39.7315 4.16669 34.8209 4.16669 25Z" stroke="white" stroke-width="4"/>
</svg>
