<svg width="44" height="50" viewBox="0 0 44 50" fill="none" xmlns="http://www.w3.org/2000/svg">
<path d="M25.6666 8.33335C25.6666 10.6345 24.0251 12.5 22 12.5C19.9749 12.5 18.3333 10.6345 18.3333 8.33335C18.3333 6.03217 19.9749 4.16669 22 4.16669C24.0251 4.16669 25.6666 6.03217 25.6666 8.33335Z" stroke="white" stroke-width="4"/>
<path d="M22 31.2494L23.1939 30.4742C22.9491 29.9875 22.4934 29.6869 22 29.6869C21.5067 29.6869 21.0509 29.9875 20.8062 30.4742L22 31.2494ZM10.6528 24.0844L14.6409 25.595L15.5105 22.6304L11.5225 21.1198L10.6528 24.0844ZM15.2475 27.0558L12.9617 33.8092L15.5284 34.9311L17.8142 28.1775L15.2475 27.0558ZM32.4775 21.1198L28.4895 22.6304L29.3592 25.595L33.3473 24.0844L32.4775 21.1198ZM26.1859 28.1775L28.4717 34.9311L31.0384 33.8092L28.7526 27.0558L26.1859 28.1775ZM20.3049 37.7698L23.1939 32.0246L20.8062 30.4742L17.9172 36.2194L20.3049 37.7698ZM31.1473 14.9241L27.6683 15.7712L28.2445 18.8268L31.7235 17.9797L31.1473 14.9241ZM16.3317 15.7712L12.8528 14.9241L12.2766 17.9797L15.7554 18.8268L16.3317 15.7712ZM20.8062 32.0246L23.6951 37.7698L26.0829 36.2194L23.1939 30.4742L20.8062 32.0246ZM27.6683 15.7712C27.4731 15.8188 27.382 15.841 27.2919 15.8621L27.8489 18.9223C27.9507 18.8984 28.053 18.8735 28.2445 18.8268L27.6683 15.7712ZM15.7554 18.8268C15.9471 18.8735 16.0493 18.8984 16.1511 18.9223L16.7082 15.8621C16.6181 15.841 16.5269 15.8188 16.3317 15.7712L15.7554 18.8268ZM27.2919 15.8621C23.8009 16.6827 20.1991 16.6827 16.7082 15.8621L16.1511 18.9223C20.0096 19.8293 23.9905 19.8293 27.8489 18.9223L27.2919 15.8621ZM16.766 40.1036C18.2286 40.1036 19.5791 39.2129 20.3049 37.7698L17.9172 36.2194C17.6811 36.689 17.2418 36.9786 16.766 36.9786V40.1036ZM28.4717 34.9311C28.8057 35.9179 28.1646 36.9786 27.234 36.9786V40.1036C30.0946 40.1036 32.0652 36.8429 31.0384 33.8092L28.4717 34.9311ZM28.4895 22.6304C28.0827 22.7846 27.6496 22.9375 27.298 23.184L28.7425 25.8434C28.7262 25.8546 28.7399 25.8411 28.8461 25.7954C28.9575 25.7475 29.1079 25.6902 29.3592 25.595L28.4895 22.6304ZM28.7526 27.0558C28.6574 26.7748 28.6008 26.6065 28.5624 26.4781C28.526 26.3563 28.5265 26.3356 28.5291 26.3571L25.8044 26.7804C25.8605 27.2456 26.0319 27.7227 26.1859 28.1775L28.7526 27.0558ZM27.298 23.184C26.218 23.9417 25.6326 25.3515 25.8044 26.7804L28.5291 26.3571C28.5045 26.1529 28.5881 25.9515 28.7425 25.8434L27.298 23.184ZM33.4584 19.5735C33.4584 20.2751 33.0633 20.8979 32.4775 21.1198L33.3473 24.0844C35.0559 23.4373 36.2084 21.6202 36.2084 19.5735H33.4584ZM12.9617 33.8092C11.9349 36.8429 13.9056 40.1036 16.766 40.1036V36.9786C15.8355 36.9786 15.1944 35.9179 15.5284 34.9311L12.9617 33.8092ZM14.6409 25.595C14.8922 25.6902 15.0425 25.7475 15.154 25.7954C15.2602 25.8411 15.2738 25.8546 15.2576 25.8434L16.7021 23.184C16.3505 22.9375 15.9174 22.7846 15.5105 22.6304L14.6409 25.595ZM17.8142 28.1775C17.9682 27.7227 18.1396 27.2456 18.1956 26.7804L15.4709 26.3571C15.4735 26.3356 15.4741 26.3561 15.4376 26.4781C15.3993 26.6065 15.3426 26.7748 15.2475 27.0558L17.8142 28.1775ZM15.2576 25.8434C15.4119 25.9515 15.4955 26.1529 15.4709 26.3571L18.1956 26.7804C18.3675 25.3515 17.7821 23.9417 16.7021 23.184L15.2576 25.8434ZM7.79169 19.5735C7.79169 21.6202 8.94418 23.4373 10.6528 24.0844L11.5225 21.1198C10.9368 20.8979 10.5417 20.2751 10.5417 19.5735H7.79169ZM10.5417 19.5735C10.5417 18.5358 11.3837 17.7623 12.2766 17.9797L12.8528 14.9241C10.248 14.2898 7.79169 16.5463 7.79169 19.5735H10.5417ZM23.6951 37.7698C24.4209 39.2129 25.7714 40.1036 27.234 40.1036V36.9786C26.7583 36.9786 26.319 36.689 26.0829 36.2194L23.6951 37.7698ZM36.2084 19.5735C36.2084 16.5463 33.7521 14.2898 31.1473 14.9241L31.7235 17.9797C32.6163 17.7623 33.4584 18.5358 33.4584 19.5735H36.2084Z" fill="white"/>
<path d="M35.6651 30.2083C38.5682 31.8669 40.3334 34.0573 40.3334 36.4583C40.3334 41.636 32.1252 45.8333 22 45.8333C11.8748 45.8333 3.66669 41.636 3.66669 36.4583C3.66669 34.0573 5.43191 31.8669 8.33492 30.2083" stroke="white" stroke-width="4" stroke-linecap="round"/>
</svg>
