<svg width="50" height="50" viewBox="0 0 50 50" fill="none" xmlns="http://www.w3.org/2000/svg">
<path d="M29.1666 8.33335C29.1666 10.6345 27.3012 12.5 25 12.5C22.6987 12.5 20.8333 10.6345 20.8333 8.33335C20.8333 6.03217 22.6987 4.16669 25 4.16669C27.3012 4.16669 29.1666 6.03217 29.1666 8.33335Z" stroke="white" stroke-width="4"/>
<path d="M25 31.2494L26.3567 30.4742C26.0786 29.9875 25.5606 29.6869 25 29.6869C24.4394 29.6869 23.9215 29.9875 23.6434 30.4742L25 31.2494ZM12.1055 24.0844L16.6374 25.595L17.6256 22.6304L13.0937 21.1198L12.1055 24.0844ZM17.3267 27.0558L14.7292 33.8092L17.6459 34.9311L20.2434 28.1775L17.3267 27.0558ZM36.9063 21.1198L32.3744 22.6304L33.3627 25.595L37.8946 24.0844L36.9063 21.1198ZM29.7567 28.1775L32.3542 34.9311L35.2709 33.8092L32.6734 27.0558L29.7567 28.1775ZM23.0738 37.7698L26.3567 32.0246L23.6434 30.4742L20.3604 36.2194L23.0738 37.7698ZM35.3946 14.9241L31.4413 15.7712L32.0961 18.8268L36.0494 17.9797L35.3946 14.9241ZM18.5587 15.7712L14.6054 14.9241L13.9507 17.9797L17.9039 18.8268L18.5587 15.7712ZM23.6434 32.0246L26.9263 37.7698L29.6396 36.2194L26.3567 30.4742L23.6434 32.0246ZM31.4413 15.7712C31.2194 15.8188 31.1159 15.841 31.0136 15.8621L31.6465 18.9223C31.7621 18.8984 31.8784 18.8735 32.0961 18.8268L31.4413 15.7712ZM17.9039 18.8268C18.1217 18.8735 18.2379 18.8984 18.3535 18.9223L18.9865 15.8621C18.8843 15.841 18.7806 15.8188 18.5587 15.7712L17.9039 18.8268ZM31.0136 15.8621C27.0465 16.6827 22.9536 16.6827 18.9865 15.8621L18.3535 18.9223C22.7381 19.8293 27.2619 19.8293 31.6465 18.9223L31.0136 15.8621ZM19.0522 40.1036C20.7143 40.1036 22.249 39.2129 23.0738 37.7698L20.3604 36.2194C20.0921 36.689 19.5929 36.9786 19.0522 36.9786V40.1036ZM32.3542 34.9311C32.7338 35.9179 32.0052 36.9786 30.9477 36.9786V40.1036C34.1984 40.1036 36.4377 36.8429 35.2709 33.8092L32.3542 34.9311ZM32.3744 22.6304C31.9121 22.7846 31.42 22.9375 31.0204 23.184L32.6619 25.8434C32.6434 25.8546 32.659 25.8411 32.7796 25.7954C32.9063 25.7475 33.0771 25.6902 33.3627 25.595L32.3744 22.6304ZM32.6734 27.0558C32.5652 26.7748 32.5009 26.6065 32.4573 26.4781C32.4159 26.3563 32.4165 26.3356 32.4194 26.3571L29.3231 26.7804C29.3869 27.2456 29.5817 27.7227 29.7567 28.1775L32.6734 27.0558ZM31.0204 23.184C29.7931 23.9417 29.1279 25.3515 29.3231 26.7804L32.4194 26.3571C32.3915 26.1529 32.4865 25.9515 32.6619 25.8434L31.0204 23.184ZM38.0209 19.5735C38.0209 20.2751 37.5719 20.8979 36.9063 21.1198L37.8946 24.0844C39.8363 23.4373 41.1459 21.6202 41.1459 19.5735H38.0209ZM14.7292 33.8092C13.5624 36.8429 15.8018 40.1036 19.0522 40.1036V36.9786C17.9948 36.9786 17.2664 35.9179 17.6459 34.9311L14.7292 33.8092ZM16.6374 25.595C16.923 25.6902 17.0938 25.7475 17.2205 25.7954C17.3411 25.8411 17.3566 25.8546 17.3381 25.8434L18.9796 23.184C18.5801 22.9375 18.0879 22.7846 17.6256 22.6304L16.6374 25.595ZM20.2434 28.1775C20.4184 27.7227 20.6132 27.2456 20.6768 26.7804L17.5806 26.3571C17.5835 26.3356 17.5842 26.3561 17.5428 26.4781C17.4992 26.6065 17.4348 26.7748 17.3267 27.0558L20.2434 28.1775ZM17.3381 25.8434C17.5135 25.9515 17.6085 26.1529 17.5806 26.3571L20.6768 26.7804C20.8721 25.3515 20.2069 23.9417 18.9796 23.184L17.3381 25.8434ZM8.85419 19.5735C8.85419 21.6202 10.1638 23.4373 12.1055 24.0844L13.0937 21.1198C12.4281 20.8979 11.9792 20.2751 11.9792 19.5735H8.85419ZM11.9792 19.5735C11.9792 18.5358 12.936 17.7623 13.9507 17.9797L14.6054 14.9241C11.6454 14.2898 8.85419 16.5463 8.85419 19.5735H11.9792ZM26.9263 37.7698C27.7511 39.2129 29.2856 40.1036 30.9477 40.1036V36.9786C30.4071 36.9786 29.9079 36.689 29.6396 36.2194L26.9263 37.7698ZM41.1459 19.5735C41.1459 16.5463 38.3546 14.2898 35.3946 14.9241L36.0494 17.9797C37.064 17.7623 38.0209 18.5358 38.0209 19.5735H41.1459Z" fill="white"/>
<path d="M40.5286 30.2083C43.8275 31.8669 45.8334 34.0573 45.8334 36.4583C45.8334 41.6361 36.5059 45.8333 25 45.8333C13.4941 45.8333 4.16669 41.6361 4.16669 36.4583C4.16669 34.0573 6.17262 31.8669 9.4715 30.2083" stroke="white" stroke-width="4" stroke-linecap="round"/>
</svg>
