<svg width="44" height="50" viewBox="0 0 44 50" fill="none" xmlns="http://www.w3.org/2000/svg">
<path d="M22 14.5833V29.1666M22 29.1666L27.5 22.9166M22 29.1666L16.5 22.9166" stroke="white" stroke-width="4" stroke-linecap="round" stroke-linejoin="round"/>
<path d="M29.3334 35.4167H22H14.6667" stroke="white" stroke-width="4" stroke-linecap="round"/>
<path d="M3.66669 25C3.66669 15.1791 3.66669 10.2686 6.35155 7.21767C9.03639 4.16669 13.3576 4.16669 22 4.16669C30.6424 4.16669 34.9637 4.16669 37.6484 7.21767C40.3334 10.2686 40.3334 15.1791 40.3334 25C40.3334 34.8209 40.3334 39.7315 37.6484 42.7823C34.9637 45.8334 30.6424 45.8334 22 45.8334C13.3576 45.8334 9.03639 45.8334 6.35155 42.7823C3.66669 39.7315 3.66669 34.8209 3.66669 25Z" stroke="white" stroke-width="4"/>
</svg>
